<svg width="256" height="256" viewBox="0 0 256 256" fill="none" xmlns="http://www.w3.org/2000/svg">
  <!-- Background -->
  <rect width="256" height="256" fill="#001F3F"/>
  
  <!-- Shield Base -->
  <path d="M128 40L180 70V130C180 150 170 165 128 190C86 165 76 150 76 130V70L128 40Z" 
        fill="rgba(205, 127, 50, 0.1)" 
        stroke="#CD7F32" 
        stroke-width="3"/>
  
  <!-- 3D Topographic Contour Lines (5 levels) -->
  <!-- Level 1 (outermost) -->
  <ellipse cx="128" cy="120" rx="45" ry="35" 
           fill="none" 
           stroke="#CD7F32" 
           stroke-width="2.5" 
           opacity="0.6"/>
  
  <!-- Level 2 -->
  <ellipse cx="128" cy="118" rx="36" ry="28" 
           fill="none" 
           stroke="#CD7F32" 
           stroke-width="2.5" 
           opacity="0.7"/>
  
  <!-- Level 3 -->
  <ellipse cx="128" cy="116" rx="27" ry="21" 
           fill="none" 
           stroke="#CD7F32" 
           stroke-width="2.5" 
           opacity="0.8"/>
  
  <!-- Level 4 -->
  <ellipse cx="128" cy="114" rx="18" ry="14" 
           fill="none" 
           stroke="#CD7F32" 
           stroke-width="2.5" 
           opacity="0.9"/>
  
  <!-- Level 5 (peak) -->
  <circle cx="128" cy="112" r="6" 
          fill="#CD7F32" 
          opacity="1"/>
  
  <!-- 3D Shadow/Depth Effect -->
  <ellipse cx="128" cy="122" rx="45" ry="35" 
           fill="none" 
           stroke="rgba(0, 31, 63, 0.4)" 
           stroke-width="1.5"/>
  
  <!-- Metallic Highlights -->
  <path d="M110 95Q128 90 146 95" 
        stroke="rgba(229, 163, 92, 0.5)" 
        stroke-width="1.5" 
        stroke-linecap="round"/>
  <path d="M105 108Q128 103 151 108" 
        stroke="rgba(229, 163, 92, 0.4)" 
        stroke-width="1.5" 
        stroke-linecap="round"/>
  
  <!-- Typography: "Bem Real" -->
  <text x="128" y="220" 
        font-family="'Montserrat', 'Helvetica Neue', sans-serif" 
        font-size="32" 
        font-weight="300" 
        fill="#B0B0B0" 
        text-anchor="middle">Bem <tspan font-weight="700">Real</tspan></text>
  
  <!-- Tagline (optional) -->
  <text x="128" y="238" 
        font-family="'Roboto Mono', monospace" 
        font-size="10" 
        fill="#B0B0B0" 
        opacity="0.7" 
        text-anchor="middle" 
        letter-spacing="2">GEOPROCESSAMENTO</text>
</svg>